<?xml version="1.0" standalone="no"?>
<!DOCTYPE svg PUBLIC "-//W3C//DTD SVG 20010904//EN"
 "http://www.w3.org/TR/2001/REC-SVG-20010904/DTD/svg10.dtd">
<svg version="1.0" xmlns="http://www.w3.org/2000/svg"
 width="1024.000000pt" height="1024.000000pt" viewBox="0 0 1024.000000 1024.000000"
 preserveAspectRatio="xMidYMid meet">
<metadata>
Created by potrace 1.14, written by Peter Selinger 2001-2017
</metadata>
<g transform="translate(0.000000,1024.000000) scale(0.100000,-0.100000)"
fill="#000000" stroke="none">
<path d="M1525 10229 c-143 -13 -311 -44 -422 -80 -362 -116 -896 -650 -1012
-1012 -37 -116 -67 -279 -81 -442 -14 -165 -14 -6985 0 -7150 24 -281 78 -484
167 -627 188 -304 437 -553 741 -741 143 -89 346 -143 627 -167 165 -14 6985
-14 7150 0 281 24 484 78 627 167 304 188 553 437 741 741 89 143 143 346 167
627 14 165 14 6985 0 7150 -24 281 -78 484 -167 627 -188 304 -437 553 -741
741 -143 89 -346 143 -627 167 -149 12 -7023 11 -7170 -1z"/>
</g>
</svg>
